<svg id="Layer_1" data-name="Layer 1" xmlns="http://www.w3.org/2000/svg" viewBox="0 0 240.94 77.84"><defs><style>.cls-1{fill:#41b4a3;}.cls-2{fill:#e9b502;}.cls-3{fill:none;stroke:#e9b502;stroke-miterlimit:10;stroke-width:1px;}</style></defs><title>Final Try Innovations Logo</title><polygon class="cls-1" points="0 66.67 18.37 47.42 1.37 31.04 30.91 0 43.2 11.67 24.83 31.04 58.6 63.69 47.67 75.48 30.17 58.72 11.92 77.84 0 66.67"/><polygon class="cls-2" points="46.96 15.12 30.2 32.77 42.21 43.95 59.22 26.66 46.96 15.12"/><path class="cls-1" d="M109.73,132.82h19.44a14.78,14.78,0,0,1,.29,2.9,15.45,15.45,0,0,1-.29,3H116.69v8.05h9.91a16,16,0,0,1,0,6h-9.91v14.34a21,21,0,0,1-7,0Z" transform="translate(-39.53 -121.08)"/><path class="cls-1" d="M135.22,147.59H132a10.25,10.25,0,0,1-.21-1.31,12.14,12.14,0,0,1-.07-1.31,11.28,11.28,0,0,1,.28-2.53h9.82v24.64a20.47,20.47,0,0,1-3.34.29,20.17,20.17,0,0,1-3.29-.29Zm-1-9.29a18.43,18.43,0,0,1-.28-3.19,19,19,0,0,1,.28-3.2q.81-.14,1.74-.21c.62,0,1.19-.07,1.69-.07s1.13,0,1.77.07,1.22.12,1.76.21a12.68,12.68,0,0,1,.19,1.6c0,.52,0,1.06,0,1.6s0,1,0,1.57a12.77,12.77,0,0,1-.19,1.62,14.94,14.94,0,0,1-1.74.19c-.62,0-1.2,0-1.74,0s-1.08,0-1.71,0A15,15,0,0,1,134.22,138.3Z" transform="translate(-39.53 -121.08)"/><path class="cls-1" d="M148.52,142.44c.44-.09.89-.16,1.33-.21a13.49,13.49,0,0,1,1.48-.07,12.09,12.09,0,0,1,1.43.07q.62.08,1.29.21a3,3,0,0,1,.26.69c.08.31.15.62.21,1s.12.66.17,1,.09.59.12.81a12.73,12.73,0,0,1,1.14-1.43,8.38,8.38,0,0,1,3.53-2.21,7.75,7.75,0,0,1,2.43-.36c2.79,0,4.9.76,6.31,2.29s2.12,3.92,2.12,7.19v15.73a19.84,19.84,0,0,1-6.76,0V153.17a8.15,8.15,0,0,0-.79-4,2.88,2.88,0,0,0-2.74-1.38,6.18,6.18,0,0,0-1.67.24,3.53,3.53,0,0,0-1.55.93,5,5,0,0,0-1.12,1.93,10.27,10.27,0,0,0-.42,3.24v12.91a20.79,20.79,0,0,1-3.39.29,20.58,20.58,0,0,1-3.38-.29Z" transform="translate(-39.53 -121.08)"/><path class="cls-1" d="M188.79,150.88a3.89,3.89,0,0,0-.39-1.86,2.81,2.81,0,0,0-1-1.12,4.52,4.52,0,0,0-1.65-.55,15.83,15.83,0,0,0-2.17-.14,16.82,16.82,0,0,0-5.48,1,12.93,12.93,0,0,1-1-2.34,9.13,9.13,0,0,1-.33-2.62,26.76,26.76,0,0,1,4.19-1.05,25.25,25.25,0,0,1,3.91-.33c3.3,0,5.88.8,7.74,2.38s2.79,4.13,2.79,7.63v14.3a40,40,0,0,1-4.05,1,28.21,28.21,0,0,1-5.38.47,21.3,21.3,0,0,1-4.46-.43,9.42,9.42,0,0,1-3.48-1.43,6.7,6.7,0,0,1-2.24-2.57,8.62,8.62,0,0,1-.78-3.86,7.11,7.11,0,0,1,1-3.84,7.56,7.56,0,0,1,2.53-2.47,11.13,11.13,0,0,1,3.45-1.34,18.29,18.29,0,0,1,3.82-.4c.92,0,1.93,0,3,.14Zm0,4.91c-.39-.07-.8-.12-1.24-.17a10.89,10.89,0,0,0-1.2-.07,7.1,7.1,0,0,0-3.69.83,2.94,2.94,0,0,0-1.36,2.69,3,3,0,0,0,.53,1.91,3.13,3.13,0,0,0,1.26,1,5.47,5.47,0,0,0,1.57.38c.56,0,1,.07,1.46.07a8.72,8.72,0,0,0,1.43-.12l1.24-.21Z" transform="translate(-39.53 -121.08)"/><path class="cls-1" d="M201.17,132.25a19.73,19.73,0,0,1,3.39-.29,19.22,19.22,0,0,1,3.33.29v25a13.84,13.84,0,0,0,.17,2.39,3.44,3.44,0,0,0,.53,1.4,1.71,1.71,0,0,0,.92.69,4.54,4.54,0,0,0,1.43.19,8.39,8.39,0,0,0,.84,0,8.5,8.5,0,0,0,.88-.15,14.74,14.74,0,0,1,.52,3.82v.69a3.11,3.11,0,0,1-.09.69,8.57,8.57,0,0,1-1.84.33c-.71.06-1.37.1-2,.1a8.4,8.4,0,0,1-5.89-2q-2.22-2-2.22-6.6Z" transform="translate(-39.53 -121.08)"/><path class="cls-1" d="M223,138.73h-8.53a15.45,15.45,0,0,1-.28-3,14.77,14.77,0,0,1,.28-2.9h24.07a14.77,14.77,0,0,1,.28,2.9,15.45,15.45,0,0,1-.28,3H230v28.35l-1.72.17c-.57.05-1.13.07-1.67.07s-1.12,0-1.73,0a17.79,17.79,0,0,1-1.89-.19Z" transform="translate(-39.53 -121.08)"/><path class="cls-1" d="M239.05,142.44c.48-.09.93-.16,1.36-.21a12.31,12.31,0,0,1,1.41-.07,10.85,10.85,0,0,1,1.4.09c.46.07.91.15,1.36.24a2.63,2.63,0,0,1,.26.69c.08.3.15.62.22,1s.12.66.16,1,.09.61.12.83a12.43,12.43,0,0,1,2.58-2.65,6.11,6.11,0,0,1,3.81-1.16c.32,0,.68,0,1.09,0a4.81,4.81,0,0,1,.91.15,9.74,9.74,0,0,1,.14,1.09c0,.42,0,.85,0,1.29s0,1.13-.07,1.76a14.49,14.49,0,0,1-.26,1.82,6,6,0,0,0-1.17-.1h-.79a11.3,11.3,0,0,0-1.81.17,4.11,4.11,0,0,0-1.9.88,5.15,5.15,0,0,0-1.51,2.14,10.94,10.94,0,0,0-.59,4v11.72a16.45,16.45,0,0,1-1.72.19c-.57,0-1.12.05-1.66.05s-1.09,0-1.65-.05-1.13-.1-1.74-.19Z" transform="translate(-39.53 -121.08)"/><path class="cls-1" d="M255.35,142.44a11.87,11.87,0,0,1,1.93-.26l1.55,0c.63,0,1.28,0,1.95,0a11.52,11.52,0,0,1,1.81.24l6.55,16.36,4.41-16.36a18.16,18.16,0,0,1,3.24-.28l1.53,0a14.08,14.08,0,0,1,2,.26l-9.2,30.46a12,12,0,0,1-1.36,3,6.62,6.62,0,0,1-1.78,1.86,6.43,6.43,0,0,1-2.24.92,12.58,12.58,0,0,1-2.67.27,16,16,0,0,1-2.41-.17,19.5,19.5,0,0,1-2.12-.45,2.38,2.38,0,0,1-.05-.41v-.35a8.43,8.43,0,0,1,.27-2.17,13.88,13.88,0,0,1,.64-2,9.05,9.05,0,0,0,1.14.26,8.72,8.72,0,0,0,1.43.12,9,9,0,0,0,1.15-.07,2.68,2.68,0,0,0,1.12-.43,3.63,3.63,0,0,0,1-1.12,8.36,8.36,0,0,0,.86-2.15l.81-2.95c-.35,0,3.48,1.26,3.05,1.28l-1.31,0h-1a3.72,3.72,0,0,1-.86-.09Z" transform="translate(-39.53 -121.08)"/><path class="cls-2" d="M157.79,178.1a6,6,0,0,1,1-.08,6.15,6.15,0,0,1,1,.08v10.11a6.67,6.67,0,0,1-2.06,0Z" transform="translate(-39.53 -121.08)"/><path class="cls-2" d="M161.82,180.94a2.57,2.57,0,0,1,.4-.06,2.81,2.81,0,0,1,.43,0,2.58,2.58,0,0,1,.42,0,2.5,2.5,0,0,1,.38.06.64.64,0,0,1,.08.2l.06.28c0,.1,0,.2,0,.29l0,.24a3,3,0,0,1,.33-.42,2.82,2.82,0,0,1,.46-.38,2.58,2.58,0,0,1,.58-.27,2.36,2.36,0,0,1,.72-.11,2.39,2.39,0,0,1,1.86.67,3,3,0,0,1,.63,2.13v4.64a6.29,6.29,0,0,1-2,0V184.1a2.38,2.38,0,0,0-.23-1.17.84.84,0,0,0-.81-.4,1.71,1.71,0,0,0-.49.07,1,1,0,0,0-.46.27,1.71,1.71,0,0,0-.33.57,3.12,3.12,0,0,0-.12,1v3.81a6.29,6.29,0,0,1-2,0Z" transform="translate(-39.53 -121.08)"/><path class="cls-2" d="M170.07,180.94a2.57,2.57,0,0,1,.4-.06,2.81,2.81,0,0,1,.43,0,2.58,2.58,0,0,1,.42,0l.38.06a.64.64,0,0,1,.08.2l.06.28c0,.1,0,.2,0,.29l0,.24a3,3,0,0,1,.33-.42,2.82,2.82,0,0,1,.46-.38,2.58,2.58,0,0,1,.58-.27,2.36,2.36,0,0,1,.72-.11,2.39,2.39,0,0,1,1.86.67,3,3,0,0,1,.63,2.13v4.64a6.29,6.29,0,0,1-2,0V184.1a2.38,2.38,0,0,0-.23-1.17.84.84,0,0,0-.81-.4,1.71,1.71,0,0,0-.49.07,1,1,0,0,0-.46.27,1.71,1.71,0,0,0-.33.57,3.12,3.12,0,0,0-.12,1v3.81a6.29,6.29,0,0,1-2,0Z" transform="translate(-39.53 -121.08)"/><path class="cls-2" d="M181.4,188.37a3.85,3.85,0,0,1-1.54-.28,2.85,2.85,0,0,1-1.08-.81,3.48,3.48,0,0,1-.65-1.2,5.06,5.06,0,0,1-.22-1.49,5.23,5.23,0,0,1,.22-1.5,3.57,3.57,0,0,1,.65-1.22,2.83,2.83,0,0,1,1.08-.8,3.68,3.68,0,0,1,1.54-.3,3.73,3.73,0,0,1,1.55.3,2.94,2.94,0,0,1,1.09.8,3.41,3.41,0,0,1,.65,1.22,5.23,5.23,0,0,1,.21,1.5,5.06,5.06,0,0,1-.21,1.49,3.32,3.32,0,0,1-.65,1.2,3,3,0,0,1-1.09.81A3.9,3.9,0,0,1,181.4,188.37Zm0-1.51a1.22,1.22,0,0,0,1.13-.59,4.32,4.32,0,0,0,0-3.36,1.21,1.21,0,0,0-1.13-.58,1.19,1.19,0,0,0-1.12.58,4.32,4.32,0,0,0,0,3.36A1.2,1.2,0,0,0,181.4,186.86Z" transform="translate(-39.53 -121.08)"/><path class="cls-2" d="M185.28,181a5,5,0,0,1,.62-.08l.5,0,.56,0a2.62,2.62,0,0,1,.52.07l1.59,5.41,1.56-5.41a4,4,0,0,1,.51-.06,4.71,4.71,0,0,1,.53,0l.49,0a5.56,5.56,0,0,1,.62.08L190,188.21l-.56,0h-1a2.73,2.73,0,0,1-.51-.07Z" transform="translate(-39.53 -121.08)"/><path class="cls-2" d="M197.46,183.43a1.1,1.1,0,0,0-.11-.55.82.82,0,0,0-.31-.33,1.14,1.14,0,0,0-.48-.16,4.16,4.16,0,0,0-.64,0,4.9,4.9,0,0,0-1.62.3A3.29,3.29,0,0,1,194,182a2.52,2.52,0,0,1-.1-.77,7.57,7.57,0,0,1,2.39-.41,3.4,3.4,0,0,1,2.28.7,2.8,2.8,0,0,1,.82,2.25v4.22a11,11,0,0,1-1.19.29,7.71,7.71,0,0,1-1.59.14,6.57,6.57,0,0,1-1.31-.12,3.09,3.09,0,0,1-1-.42,1.93,1.93,0,0,1-.66-.76,2.6,2.6,0,0,1-.23-1.14,2,2,0,0,1,.29-1.13,2.15,2.15,0,0,1,.74-.73,3.15,3.15,0,0,1,1-.4,5.33,5.33,0,0,1,1.12-.12c.28,0,.58,0,.9,0Zm0,1.44-.36-.05-.35,0a2.09,2.09,0,0,0-1.09.25.85.85,0,0,0-.4.79.94.94,0,0,0,.15.57.91.91,0,0,0,.37.28,1.48,1.48,0,0,0,.47.12l.43,0a2,2,0,0,0,.42,0l.36-.06Z" transform="translate(-39.53 -121.08)"/><path class="cls-2" d="M201.37,182.46h-.91l-.07-.28,2.63-3.36h.32v2.12H205a1.89,1.89,0,0,1,.05.38c0,.11,0,.23,0,.35s0,.26,0,.38a2.17,2.17,0,0,1-.05.41h-1.7v2.85a2.7,2.7,0,0,0,.07.7,1,1,0,0,0,.2.42.59.59,0,0,0,.33.21,1.63,1.63,0,0,0,.47.06,2.83,2.83,0,0,0,.41,0l.36-.07a3.53,3.53,0,0,1,.14.56,3.25,3.25,0,0,1,0,.51,2,2,0,0,1,0,.26,1.23,1.23,0,0,1,0,.2,5.32,5.32,0,0,1-1.33.16,2.87,2.87,0,0,1-2-.6,2.52,2.52,0,0,1-.67-1.94Z" transform="translate(-39.53 -121.08)"/><path class="cls-2" d="M207,182.46H206a2.44,2.44,0,0,1-.06-.39,2.66,2.66,0,0,1,0-.39,3.06,3.06,0,0,1,.09-.74h2.89v7.27a6.58,6.58,0,0,1-1,.08,6.67,6.67,0,0,1-1-.08Zm-.29-2.74a5.17,5.17,0,0,1-.09-.95,5.32,5.32,0,0,1,.09-.94,3.76,3.76,0,0,1,.51-.06l.5,0,.52,0a4.12,4.12,0,0,1,.52.06,4,4,0,0,1,0,.47c0,.16,0,.32,0,.47s0,.31,0,.47a3.91,3.91,0,0,1,0,.48l-.52.05-.51,0-.51,0Z" transform="translate(-39.53 -121.08)"/><path class="cls-2" d="M214,188.37a3.85,3.85,0,0,1-1.54-.28,2.85,2.85,0,0,1-1.08-.81,3.48,3.48,0,0,1-.65-1.2,5.06,5.06,0,0,1-.22-1.49,5.23,5.23,0,0,1,.22-1.5,3.57,3.57,0,0,1,.65-1.22,2.83,2.83,0,0,1,1.08-.8,3.68,3.68,0,0,1,1.54-.3,3.76,3.76,0,0,1,1.55.3,2.94,2.94,0,0,1,1.09.8,3.41,3.41,0,0,1,.65,1.22,5.23,5.23,0,0,1,.21,1.5,5.06,5.06,0,0,1-.21,1.49,3.32,3.32,0,0,1-.65,1.2,3,3,0,0,1-1.09.81A3.93,3.93,0,0,1,214,188.37Zm0-1.51a1.22,1.22,0,0,0,1.13-.59,4.32,4.32,0,0,0,0-3.36,1.21,1.21,0,0,0-1.13-.58,1.19,1.19,0,0,0-1.12.58,4.32,4.32,0,0,0,0,3.36A1.2,1.2,0,0,0,214,186.86Z" transform="translate(-39.53 -121.08)"/><path class="cls-2" d="M219,180.94a2.57,2.57,0,0,1,.4-.06,2.81,2.81,0,0,1,.43,0,2.58,2.58,0,0,1,.42,0l.38.06a.64.64,0,0,1,.08.2l.06.28c0,.1,0,.2.05.29l0,.24a3,3,0,0,1,.33-.42,2.82,2.82,0,0,1,.46-.38,2.58,2.58,0,0,1,.58-.27,2.36,2.36,0,0,1,.72-.11,2.39,2.39,0,0,1,1.86.67,3,3,0,0,1,.63,2.13v4.64a6.29,6.29,0,0,1-2,0V184.1a2.38,2.38,0,0,0-.23-1.17.84.84,0,0,0-.81-.4,1.71,1.71,0,0,0-.49.07,1,1,0,0,0-.46.27,1.71,1.71,0,0,0-.33.57,3.12,3.12,0,0,0-.12,1v3.81a6.29,6.29,0,0,1-2,0Z" transform="translate(-39.53 -121.08)"/><path class="cls-2" d="M228.68,185a2.68,2.68,0,0,1-1.23-.67,1.76,1.76,0,0,1-.45-1.32,2,2,0,0,1,.77-1.68,3.31,3.31,0,0,1,2.09-.6,5.64,5.64,0,0,1,1.08.1,6.18,6.18,0,0,1,1.08.29,3.49,3.49,0,0,1-.14.76,3.1,3.1,0,0,1-.27.69,5.85,5.85,0,0,0-.74-.24,3,3,0,0,0-.86-.11,1.51,1.51,0,0,0-.74.15.49.49,0,0,0-.27.47.47.47,0,0,0,.19.43,2,2,0,0,0,.54.24l.8.24a4.2,4.2,0,0,1,.71.28,1.81,1.81,0,0,1,.54.4,1.57,1.57,0,0,1,.35.59,2.37,2.37,0,0,1,.13.85,2.21,2.21,0,0,1-.85,1.75,3.06,3.06,0,0,1-1,.52,4.3,4.3,0,0,1-1.34.19,6.12,6.12,0,0,1-.62,0,4.41,4.41,0,0,1-.54-.07,4.7,4.7,0,0,1-.51-.12,3.89,3.89,0,0,1-.55-.18,4.27,4.27,0,0,1,.13-.77,4.57,4.57,0,0,1,.28-.75,5.91,5.91,0,0,0,.88.28,4,4,0,0,0,.86.09,2.29,2.29,0,0,0,.43,0,1.52,1.52,0,0,0,.43-.12,1,1,0,0,0,.33-.24.66.66,0,0,0-.07-.87,1.9,1.9,0,0,0-.57-.26Z" transform="translate(-39.53 -121.08)"/><line class="cls-3" x1="70.05" y1="63.31" x2="115.47" y2="63.31"/><line class="cls-3" x1="195.52" y1="63.31" x2="240.94" y2="63.31"/></svg>